# xmcd
#
# Track frame offsets:
#  180
#  7420
#  25320
#  53640
#  77270
#  88430
#  116855
#  142422
#  152932
#  179822
#
# Disc length: 2852 seconds
#
# Revision: 0
# Processed by: cddbd v1.5.1PL2 Copyright (c) Steve Scherf et al.
# Submitted via: Collectorz.com_Music_Collector 6.9
#
DISCID=930b220a
DTITLE=Ten - My Own World
DYEAR=1900
DGENRE=
TTITLE0=Got My Own Thing
TTITLE1=My Own World
TTITLE2=Sins
TTITLE3=Scrotum
TTITLE4=CrazyXX
TTITLE5=Ups A Daisy
TTITLE6=Record Deal
TTITLE7=Funk For The Drunk
TTITLE8=Raw Rappin
TTITLE9=To Suck Seed
EXTD=
EXTT0=
EXTT1=
EXTT2=
EXTT3=
EXTT4=
EXTT5=
EXTT6=
EXTT7=
EXTT8=
EXTT9=
PLAYORDER=
